# xmcd
#
# Track frame offsets: 
#        150
#        23540
#        41758
#        63851
#        92822
#        113564
#        138729
#        159912
#        177943
#        201401
#        222287
#        245326
#        274194
#        298517
#
# Disc length: 4641 seconds
#
# Revision: 0
# Processed by: cddbd v1.5.2PL0 Copyright (c) Steve Scherf et al.
# Submitted via: ExactAudioCopy v0.99pb4
#
DISCID=c8121f0e
DTITLE=Various Artist - TSOB - The Sound Of Belgium Vol. 3 - CD 3
DYEAR=2016
DGENRE=Acid
TTITLE0=The Project - Do That Dance
TTITLE1=Frank De Wulf - The Tape (Remix)
TTITLE2=Channel X - Rave The Rhythm
TTITLE3=Pleasure Game - Le Dormeur (Paradox Mix)
TTITLE4=Aquastep - Oempa Loempa
TTITLE5=Phantasia - Inner Light (French Version)
TTITLE6=Bazz - House Of Pax (Sanchid Mix)
TTITLE7=Plexus - Cactus Rhythm (Mike Ferlin Mix)
TTITLE8=Kate B - Free
TTITLE9=Human Resource - Dominator (Frank De Wulf Remix)
TTITLE10=Ravesignal - Horsepower
TTITLE11=Test - Overdub (New Concept)
TTITLE12=Jambo! - Drumattack
TTITLE13=Mappa Mundi - Trance Fusion
EXTD=
EXTT0=
EXTT1=
EXTT2=
EXTT3=
EXTT4=
EXTT5=
EXTT6=
EXTT7=
EXTT8=
EXTT9=
EXTT10=
EXTT11=
EXTT12=
EXTT13=
PLAYORDER=
